                         =!DK GROUP HD BLURAY RELEAESEES!=

===================================================================================

             Heroes(Season-1) E-03 Bluray Rip In[Hindi-Eng]By !!!dip

===================================================================================

Storyline:

They thought they were like everyone else... until they woke with incredible abilities.  

Cast:

Jack Coleman..............Noah Bennet
Hayden Panettiere.........Claire Bennet
Milo Ventimiglia..........Peter Petrelli
Masi Oka..................Hiro Nakamura
Sendhil Ramamurthy........Mohinder Suresh
James Kyson-Lee...........Ando Masahashi
Adrian Pasdar.............Nathan Petrelli
Zachary Quinto............Sylar
Greg Grunberg.............Matt Parkman
Ali Larter................Niki Sanders
Cristine Rose.............Angela Petrelli
Ashley Crow...............Sandra Bennet
Jimmy Jean-Louis..........The Haitian


Creator:...........Tim Kring
Stars :...........Jack Coleman, Hayden Panettiere and Milo Ventimiglia
Format :...........Color, Dubbed, Subtitled, Widescreen
Language:..........[Hindi-Eng]
Release YEAR :.....2006
Genre:.............Drama | Sci-Fi | Thriller
Source:............Bluray
Run Time :.........51m:17s
Color:.............Color
Filming Locations:.Freeway Park, Backlot, Universal Studios - 100 Universal City Plaza, Universal City, California, USA
SUBTITLE:..........ENGLISH


Video Specifications:

Release Title/Year/Language...:Heroes(Season-1) E-03 Bluray Rip In[Hindi-Eng]By !!!dip

Video
ID                               : 1
Format                           : AVC
Format/Info                      : Advanced Video Codec
Format profile                   : High@L4.1
Format settings, CABAC           : Yes
Format settings, ReFrames        : 4 frames
Muxing mode                      : Header stripping
Codec ID                         : V_MPEG4/ISO/AVC
Duration                         : 41mn 47s
Bit rate                         : 3 142 Kbps
Width                            : 1 280 pixels
Height                           : 720 pixels
Display aspect ratio             : 16:9
Frame rate                       : 25.000 fps
Original frame rate              : 23.976 fps
Color space                      : YUV
Chroma subsampling               : 4:2:0
Bit depth                        : 8 bits
Scan type                        : Progressive
Bits/(Pixel*Frame)               : 0.136
Stream size                      : 962 MiB (83%)
Title                            : !!!dip
Resolution : 1280 x 720 pixels
Team : DK Group HD Bluray Releases



Audio Specifications:


Audio #1
ID                               : 2
Format                           : AC-3
Format/Info                      : Audio Coding 3
Mode extension                   : CM (complete main)
Muxing mode                      : Header stripping
Codec ID                         : A_AC3
Duration                         : 41mn 47s
Bit rate mode                    : Constant
Bit rate                         : 448 Kbps
Channel(s)                       : 6 channels
Channel positions                : Front: L C R, Side: L R, LFE
Sampling rate                    : 48.0 KHz
Bit depth                        : 16 bits
Compression mode                 : Lossy
Stream size                      : 134 MiB (12%)
Title                            : !!!dip
Language                         : English

Audio #2
ID                               : 3
Format                           : MPEG Audio
Format version                   : Version 1
Format profile                   : Layer 3
Mode                             : Joint stereo
Mode extension                   : MS Stereo
Muxing mode                      : Header stripping
Codec ID                         : A_MPEG/L3
Codec ID/Hint                    : MP3
Duration                         : 41mn 47s
Bit rate mode                    : Constant
Bit rate                         : 128 Kbps
Channel(s)                       : 2 channels
Sampling rate                    : 44.1 KHz
Compression mode                 : Lossy
Delay relative to video          : 1s 0ms
Stream size                      : 38.3 MiB (3%)
Title                            : !!!dip
Language                         : Hindi

Text
ID                               : 4
Format                           : ASS
Codec ID                         : S_TEXT/ASS
Codec ID/Info                    : Advanced Sub Station Alpha
Compression mode                 : Lossless
Title                            : !!!dip
Language                         : English


SAMPLE IMAGE:
  
http://www.pix2links.com/images/03380295175301977662.jpg
 
http://www.pix2links.com/images/48464722707698643308.jpg
 
http://www.pix2links.com/images/32721762912312560522.jpg
 
http://www.pix2links.com/images/91061370215854381430.jpg
 
http://www.pix2links.com/images/19484931418078121848.jpg
 
http://www.pix2links.com/images/53449392818959590654.jpg
 
